# xmcd
#
# Track frame offsets: 
#        175
#        17670
#        30587
#        43960
#        57855
#        76027
#        87642
#        108615
#        126775
#        144175
#
# Disc length: 1955 seconds
#
# Revision: 3
# Processed by: cddbd v1.5.2PL0 Copyright (c) Steve Scherf et al.
# Submitted via: ExactAudioCopy v0.95b3
#
DISCID=7d07a10a
DTITLE=Insekt - In The Eye
DYEAR=1993
DGENRE=Industrial
TTITLE0=Digging In You Soul
TTITLE1=In The Eye
TTITLE2=Leave Me Alone
TTITLE3=I Love To Hate Myself
TTITLE4=Dreams In Pockets
TTITLE5=Insect Arianism
TTITLE6=F.F. Session
TTITLE7=Evil Train
TTITLE8=1001
TTITLE9=
EXTD=YEAR: 1993
EXTT0=
EXTT1=
EXTT2=
EXTT3=
EXTT4=
EXTT5=
EXTT6=
EXTT7=
EXTT8=
EXTT9=
PLAYORDER=
